<svg width="105" height="31" viewBox="0 0 105 31" fill="none" xmlns="http://www.w3.org/2000/svg">
<path d="M29.9394 8.99242C29.0277 6.99046 27.6975 5.20597 26.0379 3.7586C24.6776 2.51391 23.0809 1.55382 21.3422 0.935087C19.4991 0.300756 17.5606 -0.0136979 15.6108 0.00539409C13.5498 -0.0493424 11.4991 0.31298 9.58237 1.07049C7.66565 1.828 5.92272 2.96499 4.45878 4.41283C3.00212 5.84941 1.85555 7.568 1.08959 9.4629C0.323636 11.3578 -0.0455091 13.3889 0.00485973 15.4314C-0.0472893 17.4895 0.320727 19.5366 1.08654 21.4484C1.85236 23.3602 2.99998 25.0967 4.45965 26.5524C5.91932 28.0081 7.66057 29.1527 9.57755 29.9164C11.4945 30.6801 13.5472 31.0472 15.6108 30.9952C17.7986 31.0143 19.9688 30.6048 21.9983 29.79C23.968 28.9438 25.7338 27.6877 27.1772 26.1057C28.4774 24.6978 29.5072 23.0638 30.2156 21.285C30.9218 19.4496 31.2846 17.5006 31.2859 15.5347C31.3181 13.2824 30.8587 11.05 29.9394 8.99242ZM22.7233 22.7656C21.8126 23.7294 20.7086 24.4912 19.4832 25.0014C18.2578 25.5116 16.9384 25.7588 15.6108 25.7269C14.3174 25.7342 13.0364 25.4749 11.8482 24.9653C10.6599 24.4557 9.59002 23.7069 8.70554 22.7656C7.75372 21.7728 7.01003 20.6005 6.51797 19.3176C6.02591 18.0346 5.79537 16.6666 5.83984 15.2937C5.79999 13.9265 6.03278 12.565 6.52472 11.2883C7.01665 10.0115 7.75793 8.84491 8.70554 7.85613C9.59384 6.9198 10.6645 6.1742 11.8519 5.66501C13.0392 5.15582 14.3183 4.89376 15.6108 4.89489C16.9381 4.86516 18.2568 5.11334 19.4819 5.62341C20.707 6.13347 21.8112 6.89408 22.7233 7.85613C23.6709 8.84491 24.4122 10.0115 24.9041 11.2883C25.3961 12.565 25.6289 13.9265 25.589 15.2937C25.6522 16.6894 25.4308 18.0835 24.9382 19.3915C24.4457 20.6994 23.6922 21.8942 22.7233 22.9034V22.7656Z" fill="#231F20"/>
<path d="M41.1948 13.7782C42.0151 12.8281 43.0115 12.0447 44.1295 11.4712C45.1148 10.9714 46.2007 10.7006 47.3059 10.6792C48.5174 10.614 49.7205 10.9139 50.7586 11.5401C51.7034 12.1479 52.4292 13.0405 52.8302 14.0881C53.6242 13.0261 54.6365 12.1457 55.7995 11.5056C56.9235 10.9428 58.1672 10.6593 59.4247 10.6792C60.2718 10.611 61.1238 10.7196 61.9264 10.9983C62.729 11.2769 63.4644 11.7195 64.0858 12.2976C65.1615 13.7074 65.6999 15.4525 65.605 17.2215V26.3118H68.2981V30.3061H58.0092V26.3118H60.7713V19.4252C60.901 18.2299 60.6472 17.0243 60.0462 15.9819C59.7172 15.648 59.3159 15.3937 58.873 15.2385C58.4301 15.0833 57.9574 15.0313 57.4913 15.0867C56.713 15.0813 55.9443 15.2582 55.247 15.6032C54.4865 16.0023 53.8074 16.5394 53.2445 17.1871V26.3118H55.9721V30.3061H45.8558V26.3118H48.618V19.4252C48.755 18.2252 48.4878 17.0138 47.8584 15.9819C47.5219 15.6603 47.1186 15.4164 46.677 15.2677C46.2355 15.1189 45.7665 15.0689 45.3034 15.1211C44.4709 15.1219 43.656 15.3609 42.9556 15.8098C42.1801 16.3813 41.5332 17.1086 41.0566 17.9446V26.3118H43.8188V30.3061H33.668V26.3118H36.361V15.0867H33.668V11.0924H41.1948V13.7782Z" fill="#231F20"/>
<path d="M77.4487 13.7789C78.4453 12.7843 79.6153 11.9792 80.9014 11.4031C81.9865 10.9166 83.1643 10.67 84.354 10.68C85.1827 10.6162 86.0153 10.7308 86.7957 11.016C87.576 11.3011 88.2858 11.7502 88.877 12.3328C89.9039 13.7478 90.3934 15.4807 90.2581 17.2223V26.3126H92.9166V30.3068H82.8694V26.3126H85.5625V18.3585C85.6071 17.5114 85.3366 16.6776 84.8029 16.0171C84.5055 15.7334 84.1529 15.5136 83.7668 15.3715C83.3808 15.2293 82.9695 15.1678 82.5586 15.1907C81.662 15.1988 80.7824 15.4359 80.0037 15.8794C79.0753 16.4395 78.2565 17.1628 77.5868 18.0142V26.3126H80.2799V30.3068H69.9219V26.3126H72.5114V15.0874H69.8184V11.0932H77.3451L77.4487 13.7789Z" fill="#231F20"/>
<path d="M102.203 26.3122H104.999V30.3064H94.4688V26.3122H97.4035V15.087H94.5033V11.0928H102.203V26.3122ZM95.8498 7.95937V2.86328H102.203V7.95937H95.8498Z" fill="#231F20"/>
</svg>
