<svg width="45" height="45" viewBox="0 0 45 45" fill="none" xmlns="http://www.w3.org/2000/svg">
<path d="M32.7852 21.75C33.1994 21.75 33.5352 22.0858 33.5352 22.5C33.5352 22.9142 33.1994 23.25 32.7852 23.25V21.75ZM11.6834 23.0303C11.3905 22.7374 11.3905 22.2626 11.6834 21.9697L16.4564 17.1967C16.7493 16.9038 17.2241 16.9038 17.517 17.1967C17.8099 17.4896 17.8099 17.9645 17.517 18.2574L13.2744 22.5L17.517 26.7426C17.8099 27.0355 17.8099 27.5104 17.517 27.8033C17.2241 28.0962 16.7493 28.0962 16.4564 27.8033L11.6834 23.0303ZM32.7852 23.25H12.2137V21.75H32.7852V23.25Z" fill="#141414"/>
<circle cx="22.5" cy="22.5" r="21.5" stroke="#141414" stroke-width="2"/>
</svg>
