<svg width="45" height="45" viewBox="0 0 45 45" fill="none" xmlns="http://www.w3.org/2000/svg">
<path d="M12.2148 21.75C11.8006 21.75 11.4648 22.0858 11.4648 22.5C11.4648 22.9142 11.8006 23.25 12.2148 23.25V21.75ZM33.3166 23.0303C33.6095 22.7374 33.6095 22.2626 33.3166 21.9697L28.5436 17.1967C28.2507 16.9038 27.7759 16.9038 27.483 17.1967C27.1901 17.4896 27.1901 17.9645 27.483 18.2574L31.7256 22.5L27.483 26.7426C27.1901 27.0355 27.1901 27.5104 27.483 27.8033C27.7759 28.0962 28.2507 28.0962 28.5436 27.8033L33.3166 23.0303ZM12.2148 23.25H32.7863V21.75H12.2148V23.25Z" fill="#141414"/>
<circle cx="22.5" cy="22.5" r="21.5" transform="matrix(-1 0 0 1 45 0)" stroke="#141414" stroke-width="2"/>
</svg>
