<svg width="28" height="22" viewBox="0 0 28 22" fill="none" xmlns="http://www.w3.org/2000/svg">
<path d="M28 2.63575C26.9477 3.07638 25.8348 3.36767 24.696 3.50055C25.8974 2.80779 26.7978 1.71796 27.23 0.433211C26.101 1.0819 24.8651 1.53893 23.576 1.78446C22.7144 0.882599 21.567 0.282272 20.3137 0.0776316C19.0605 -0.127008 17.7724 0.0756142 16.6513 0.653721C15.5303 1.23183 14.6397 2.15272 14.1193 3.27197C13.599 4.39121 13.4782 5.64551 13.776 6.83813C11.4932 6.72669 9.26022 6.15299 7.22212 5.15429C5.18402 4.15559 3.38638 2.75424 1.946 1.04127C1.44079 1.89279 1.17533 2.85711 1.176 3.83836C1.17421 4.74962 1.4059 5.64717 1.85046 6.45109C2.29501 7.25501 2.93863 7.94036 3.724 8.44612C2.81117 8.42215 1.91784 8.18573 1.12 7.75698V7.82455C1.12684 9.10133 1.59039 10.3366 2.43224 11.3215C3.27409 12.3064 4.44256 12.9804 5.74 13.2295C5.24056 13.3762 4.72202 13.4536 4.2 13.4593C3.83865 13.4552 3.47819 13.4236 3.122 13.3647C3.49147 14.463 4.20647 15.4228 5.1675 16.1106C6.12854 16.7984 7.28781 17.18 8.484 17.2022C6.46408 18.7362 3.97024 19.5735 1.4 19.5804C0.932029 19.5819 0.46443 19.5548 0 19.4993C2.6242 21.1347 5.68234 22.0028 8.806 21.9992C10.9616 22.0208 13.1 21.6276 15.0964 20.8426C17.0927 20.0576 18.907 18.8965 20.4333 17.4272C21.9595 15.9579 23.1671 14.2097 23.9856 12.2849C24.804 10.3601 25.2169 8.29712 25.2 6.21656C25.2 5.98685 25.2 5.74362 25.2 5.5004C26.2986 4.70966 27.2461 3.74029 28 2.63575Z" fill="#EAEAEA"/>
</svg>
