<svg width="31" height="21" viewBox="0 0 31 21" fill="none" xmlns="http://www.w3.org/2000/svg">
<path d="M30.9929 7.40106C31.0625 5.4579 30.6217 3.52928 29.7114 1.79428C29.0938 1.08237 28.2366 0.601939 27.2893 0.436709C23.371 0.0939556 19.4365 -0.0465275 15.5026 0.0158609C11.5831 -0.0493592 7.66277 0.0865907 3.75823 0.423133C2.98628 0.558506 2.2719 0.907572 1.70226 1.42774C0.434875 2.55452 0.294055 4.48228 0.153235 6.11137C-0.0510783 9.04042 -0.0510783 11.9794 0.153235 14.9084C0.193974 15.8254 0.335588 16.7355 0.575695 17.6236C0.745489 18.3092 1.08902 18.9436 1.57552 19.4699C2.14903 20.0176 2.88006 20.3865 3.67374 20.5288C6.70971 20.8901 9.76875 21.0398 12.8271 20.9768C17.7558 21.0447 22.0789 20.9768 27.1907 20.5967C28.0039 20.4631 28.7555 20.0938 29.3453 19.5378C29.7395 19.1575 30.034 18.6921 30.2043 18.1802C30.7079 16.6904 30.9552 15.1312 30.9365 13.5644C30.9929 12.8042 30.9929 8.2156 30.9929 7.40106ZM12.3201 14.379V5.97561L20.6567 10.1977C18.319 11.4466 15.2351 12.8585 12.3201 14.379Z" fill="#EAEAEA"/>
</svg>
