<svg width="159" height="47" viewBox="0 0 159 47" fill="none" xmlns="http://www.w3.org/2000/svg">
<path d="M45.3367 13.6337C43.9563 10.5984 41.9419 7.89293 39.4288 5.69852C37.3689 3.8114 34.9511 2.35579 32.3183 1.41771C29.5272 0.455985 26.5917 -0.0207678 23.6393 0.00817813C20.5183 -0.0748095 17.4129 0.474517 14.5104 1.623C11.608 2.77148 8.96869 4.49531 6.75187 6.69041C4.54606 8.86846 2.80983 11.4741 1.64995 14.347C0.490078 17.2199 -0.0689137 20.2994 0.00735903 23.396C-0.0716095 26.5163 0.485673 29.62 1.64534 32.5185C2.805 35.417 4.54282 38.0498 6.75318 40.2569C8.96355 42.464 11.6003 44.1992 14.5031 45.3571C17.406 46.515 20.5144 47.0715 23.6393 46.9926C26.9521 47.0217 30.2384 46.4009 33.3116 45.1655C36.2945 43.8826 38.9683 41.9781 41.1541 39.5795C43.1229 37.4451 44.6824 34.9678 45.755 32.2708C46.8244 29.4881 47.3738 26.5332 47.3758 23.5526C47.4246 20.1378 46.7288 16.7532 45.3367 13.6337ZM34.4096 34.5157C33.0305 35.9769 31.3587 37.1318 29.5031 37.9053C27.6475 38.6788 25.6495 39.0536 23.6393 39.0053C21.6807 39.0163 19.7409 38.6232 17.9415 37.8506C16.1422 37.0781 14.522 35.9427 13.1827 34.5157C11.7414 33.0103 10.6152 31.2331 9.87006 29.2879C9.12494 27.3427 8.77584 25.2687 8.84319 23.1872C8.78284 21.1143 9.13536 19.0502 9.88029 17.1145C10.6252 15.1787 11.7477 13.41 13.1827 11.9109C14.5278 10.4913 16.1491 9.36089 17.9471 8.58889C19.7451 7.81689 21.6821 7.41958 23.6393 7.42128C25.6491 7.37621 27.646 7.75249 29.5012 8.52581C31.3563 9.29913 33.0285 10.4523 34.4096 11.9109C35.8445 13.41 36.967 15.1787 37.712 17.1145C38.4569 19.0502 38.8094 21.1143 38.7491 23.1872C38.8448 25.3033 38.5095 27.4169 37.7636 29.4C37.0177 31.383 35.8767 33.1944 34.4096 34.7245V34.5157Z" fill="#EAEAEA"/>
<path d="M62.3811 20.8896C63.6233 19.4491 65.1322 18.2615 66.8251 17.3919C68.3171 16.6341 69.9616 16.2236 71.6352 16.1912C73.4697 16.0922 75.2915 16.547 76.8635 17.4963C78.2942 18.4179 79.3932 19.7712 80.0005 21.3595C81.2028 19.7494 82.7358 18.4145 84.4968 17.4441C86.1988 16.5908 88.0822 16.1609 89.9865 16.1912C91.2692 16.0877 92.5594 16.2524 93.7747 16.6749C94.99 17.0974 96.1038 17.7683 97.0447 18.6448C98.6736 20.7823 99.4889 23.4281 99.3452 26.1101V39.8922H103.423V45.948H87.8429V39.8922H92.0256V29.4512C92.222 27.6389 91.8376 25.8111 90.9276 24.2307C90.4294 23.7244 89.8216 23.3388 89.151 23.1036C88.4803 22.8683 87.7646 22.7895 87.0587 22.8734C85.8801 22.8652 84.7161 23.1334 83.6603 23.6565C82.5086 24.2616 81.4802 25.076 80.6279 26.0579V39.8922H84.7582V45.948H69.4393V39.8922H73.6219V29.4512C73.8295 27.6318 73.4248 25.7952 72.4717 24.2307C71.9622 23.7431 71.3515 23.3734 70.6828 23.1478C70.0142 22.9223 69.3041 22.8464 68.6028 22.9256C67.342 22.9268 66.1081 23.2892 65.0475 23.9697C63.8732 24.8363 62.8936 25.9389 62.172 27.2064V39.8922H66.3546V45.948H50.9834V39.8922H55.0615V22.8734H50.9834V16.8176H62.3811V20.8896Z" fill="#EAEAEA"/>
<path d="M117.279 20.8909C118.788 19.383 120.56 18.1623 122.507 17.2888C124.151 16.5513 125.934 16.1773 127.736 16.1925C128.991 16.0958 130.251 16.2696 131.433 16.7019C132.615 17.1342 133.69 17.8151 134.585 18.6983C136.14 20.8437 136.881 23.471 136.676 26.1114V39.8935H140.702V45.9493H125.488V39.8935H129.566V27.8342C129.633 26.5498 129.224 25.2857 128.415 24.2842C127.965 23.8541 127.431 23.5209 126.847 23.3054C126.262 23.0899 125.639 22.9966 125.017 23.0313C123.659 23.0436 122.327 23.4031 121.148 24.0754C119.742 24.9246 118.502 26.0212 117.488 27.3121V39.8935H121.566V45.9493H105.881V39.8935H109.803V22.8747H105.725V16.8189H117.122L117.279 20.8909Z" fill="#EAEAEA"/>
<path d="M154.765 39.8929H159V45.9487H143.054V39.8929H147.498V22.8741H143.106V16.8183H154.765V39.8929ZM145.145 12.0676V4.34131H154.765V12.0676H145.145Z" fill="#EAEAEA"/>
</svg>
